<svg width="34" height="34" viewBox="0 0 34 34" fill="none" xmlns="http://www.w3.org/2000/svg">
<path d="M17.166 33.9942H16.9003C13.7933 33.4131 10.8117 32.3589 7.75868 31.5704C6.90453 31.3496 6.06034 31.0856 5.20619 30.8623C4.87001 30.7743 4.7289 30.5701 4.70151 30.2572C4.60937 29.203 4.52055 28.148 4.42177 27.0938C4.31386 25.9411 4.21176 24.7878 4.11547 23.634C4.02001 22.5018 3.91459 21.3712 3.81664 20.2398C3.70043 18.8884 3.57592 17.5379 3.45805 16.1865C3.35844 15.0551 3.25385 13.9246 3.15756 12.7923C3.06127 11.6601 2.96332 10.5511 2.85873 9.43218C2.7558 8.33399 2.66532 7.23497 2.56654 6.13677C2.46472 4.99459 2.36262 3.8524 2.26024 2.71021C2.19218 1.94101 2.12494 1.1718 2.05854 0.402595C2.03778 0.162703 2.12245 0.0141177 2.39057 0.0381899C2.44535 0.0423403 2.50097 0.0381899 2.55658 0.0381899H31.5039C32.0019 0.0381899 32.0293 0.0813545 31.9878 0.56529C31.8691 1.93907 31.7455 3.31202 31.6251 4.68497C31.5047 6.05792 31.3761 7.45245 31.2524 8.83536C31.1329 10.1867 31.0144 11.5378 30.8971 12.8886C30.7767 14.2732 30.6481 15.6561 30.5252 17.039C30.4057 18.3904 30.287 19.7418 30.1691 21.0931C30.0703 22.2129 29.9641 23.3343 29.8662 24.4533C29.7682 25.5722 29.6644 26.6945 29.5748 27.8151C29.5101 28.6286 29.4179 29.4396 29.3615 30.2539C29.3391 30.5668 29.1955 30.766 28.8584 30.8598C26.2221 31.5964 23.5852 32.3316 20.9478 33.0653C20.3103 33.243 19.6686 33.4106 19.0386 33.6057C18.4277 33.7991 17.7935 33.883 17.166 33.9942Z" fill="#2195F2"/>
<path d="M17.0282 6.30861C20.0414 6.30861 23.0554 6.31276 26.0686 6.3028C26.3625 6.3028 26.4297 6.35924 26.4006 6.66803C26.1342 9.52433 25.8901 12.3823 25.6361 15.2402C25.3489 18.4717 25.0551 21.7024 24.7745 24.9339C24.7446 25.2792 24.6243 25.4319 24.2765 25.5233C21.9522 26.1442 19.6421 26.7924 17.3279 27.4374C17.1388 27.4951 16.9371 27.4971 16.7468 27.4432C14.3911 26.7847 12.0331 26.1325 9.67291 25.4867C9.43966 25.4236 9.32926 25.3323 9.30768 25.0775C9.15494 23.2638 8.98893 21.4501 8.82125 19.638C8.80299 19.4363 8.85528 19.3657 9.07027 19.3674C10.1516 19.3763 11.2332 19.3763 12.315 19.3674C12.5408 19.3674 12.5865 19.4579 12.6023 19.6588C12.667 20.5063 12.755 21.3513 12.8214 22.198C12.8388 22.4154 12.9135 22.5209 13.1352 22.5781C14.362 22.8969 15.5847 23.2322 16.8074 23.5651C16.9559 23.607 17.113 23.607 17.2615 23.5651C18.485 23.2331 19.7077 22.901 20.9346 22.5798C21.1545 22.5225 21.2342 22.4138 21.2566 22.2029C21.4227 20.6449 21.5829 19.086 21.7655 17.5304C21.8053 17.186 21.5771 17.3046 21.4384 17.3046C17.3434 17.3096 13.2483 17.3179 9.15328 17.3296C8.51661 17.3296 8.65524 17.4258 8.57223 16.8191C8.46266 15.9549 8.3838 15.0867 8.29664 14.2193C8.25348 13.7859 8.25846 13.7868 8.68097 13.781C13.019 13.7278 17.3561 13.6697 21.6941 13.6299C22.0519 13.6299 22.1266 13.5046 22.1423 13.1792C22.1921 12.1831 22.261 11.1953 22.3582 10.2075C22.3905 9.88541 22.3324 9.8049 21.9996 9.80739C17.816 9.83229 13.6324 9.84806 9.44879 9.8547C9.01881 9.8547 8.588 9.8547 8.15719 9.863C7.97374 9.86798 7.87828 9.83229 7.865 9.61896C7.80136 8.58413 7.72831 7.5493 7.64586 6.51447C7.62677 6.26544 7.78531 6.31359 7.92144 6.31276C8.83785 6.31276 9.75426 6.31276 10.6707 6.31276L17.0282 6.30861Z" fill="#F9F9F9"/>
</svg>
