<svg width="50" height="50" viewBox="0 0 50 50" fill="none" xmlns="http://www.w3.org/2000/svg">
<g clip-path="url(#clip0_47_2672)">
<path d="M49.9914 24.0741V25.8275C49.8959 25.9375 49.9567 26.0706 49.9393 26.1892V26.3773C49.9393 26.4554 49.9191 26.5422 49.9914 26.6088V26.9965C49.9017 28.2055 49.7306 29.4071 49.4792 30.5932C48.7677 33.669 47.4795 36.5822 45.683 39.1782C43.5931 42.2311 40.8441 44.7754 37.639 46.6233C34.5516 48.4086 31.2385 49.5862 27.6737 49.8698C23.3508 50.2112 19.1205 49.783 15.1072 47.9687C12.4299 46.7865 9.97155 45.1606 7.83574 43.1597C5.26427 40.7371 3.23653 37.7961 1.88667 34.5312C0.811208 32.0536 0.205807 29.3975 0.101354 26.6985C0.0463774 24.6557 0.00587241 22.6186 0.358882 20.5903C1.0012 16.9898 2.42139 13.5729 4.52036 10.5778C6.61933 7.58281 9.34652 5.08183 12.5117 3.24941C15.2951 1.62201 18.3732 0.561882 21.5684 0.130199C22.0776 0.0607542 22.5956 0.10126 23.1048 0.00866699H23.4955C23.5591 0.081005 23.6459 0.0549612 23.7269 0.0607482C23.808 0.0665352 23.9729 0.10126 24.0799 0.00866699H25.9318C26.0128 0.092579 26.1199 0.0491741 26.2211 0.0607482H26.3976C26.4758 0.0607482 26.5568 0.0752179 26.6176 0.00866699H26.9069C27.7402 0.121514 28.5794 0.109939 29.4098 0.260402C33.5853 1.00642 37.5047 2.79542 40.8039 5.46129C44.1031 8.12716 46.6752 11.5835 48.2813 15.5092C49.0691 17.4167 49.606 19.4184 49.8786 21.4641C49.948 21.9734 49.9075 22.4942 50.0001 23.0035V23.2928C49.9278 23.3565 49.9538 23.4433 49.948 23.5214V23.7268C49.9567 23.8339 49.8959 23.9641 49.9914 24.0741Z" fill="#151515"/>
<path d="M24.074 0C23.9669 0.150463 23.8165 0.0897015 23.6776 0.0839145C23.6516 0.0636599 23.6429 0.0462952 23.6544 0.0260406C23.666 0.00578598 23.6747 0 23.6834 0H24.074Z" fill="#151515"/>
<path d="M49.9912 24.0741C49.8408 23.9699 49.9015 23.8194 49.9015 23.6806C49.9334 23.64 49.9623 23.6429 49.9912 23.6806V24.0741Z" fill="#151515"/>
<path d="M49.9045 26.221C49.9045 26.085 49.8408 25.9317 49.9913 25.8275V26.2181C49.9624 26.2586 49.9334 26.2615 49.9045 26.221Z" fill="#151515"/>
<path d="M26.221 0.0925815C26.111 0.0925815 25.9953 0.133088 25.9316 0.00866699H26.221C26.2499 0.0260281 26.2615 0.0433899 26.2528 0.0636446C26.2441 0.0838992 26.2297 0.0925815 26.221 0.0925815Z" fill="#151515"/>
<path d="M23.6834 0C23.6878 0.0277986 23.6878 0.0561159 23.6834 0.0839145C23.6053 0.0839145 23.5185 0.115741 23.4954 0H23.6834Z" fill="#151515"/>
<path d="M26.2211 0.0925815C26.2196 0.0646295 26.2196 0.036619 26.2211 0.00866699H26.4149C26.4438 0.0260281 26.4554 0.0433871 26.4468 0.0607482C26.4381 0.0781093 26.4294 0.0925815 26.4207 0.0925815H26.2211Z" fill="#151515"/>
<path d="M26.4178 0.0925815C26.4164 0.0646292 26.4164 0.0366193 26.4178 0.00866699H26.6204C26.5828 0.127301 26.4988 0.104156 26.4178 0.0925815Z" fill="#151515"/>
<path d="M49.9045 23.4838C49.9045 23.4057 49.8698 23.316 49.9913 23.2958V23.4896C49.9595 23.533 49.9305 23.5359 49.9045 23.4838Z" fill="#151515"/>
<path d="M49.9045 23.4838H49.9913V23.6776C49.9615 23.6806 49.9314 23.6806 49.9016 23.6776C49.9016 23.6169 49.9045 23.5503 49.9045 23.4838Z" fill="#151515"/>
<path d="M49.9045 26.2211H49.9914V26.4149C49.9653 26.4583 49.9364 26.4583 49.9045 26.4149V26.2211Z" fill="#151515"/>
<path d="M49.9044 26.4178H49.9913V26.6204C49.8668 26.5857 49.8957 26.4989 49.9044 26.4178Z" fill="#151515"/>
<path d="M12.2975 17.6504L18.0846 22.037C19.9451 23.449 21.8114 24.8553 23.6662 26.276C24.0284 26.5913 24.4941 26.7624 24.9743 26.7565C25.4546 26.7506 25.9159 26.5683 26.2703 26.2442C29.8757 23.3507 33.5041 20.4774 37.1239 17.6012L37.3554 17.4189C37.5001 17.5492 37.4306 17.7083 37.4306 17.8356C37.4306 23.7442 37.4306 29.6556 37.4306 35.5671C37.4306 35.9837 37.3149 36.0619 36.9214 36.0619C28.8658 36.0503 20.8112 36.0503 12.7576 36.0619C12.4683 36.0619 12.2484 36.1198 12.2512 35.6684C12.2686 29.7424 12.2686 23.8155 12.2512 17.8877C12.2773 17.824 12.286 17.7748 12.2975 17.6504Z" fill="#008AFF"/>
<path d="M13.481 13.8889H36.169C36.114 14.0857 35.9462 14.1407 35.8276 14.2332C32.3438 16.9937 28.8581 19.7521 25.3704 22.5087C25.1708 22.6678 25.029 22.772 24.757 22.5608C21.0919 19.7271 17.4113 16.903 13.7153 14.0886C13.6517 14.0336 13.5996 13.9815 13.481 13.8889Z" fill="#008AFF"/>
</g>
<defs>
<clipPath id="clip0_47_2672">
<rect width="50" height="50" fill="white"/>
</clipPath>
</defs>
</svg>
