<svg width="34" height="34" viewBox="0 0 34 34" fill="none" xmlns="http://www.w3.org/2000/svg">
<path d="M3.05356 0.00683594H31.0101C31.8227 0.159561 32.0792 0.56585 31.9892 1.41465C31.8913 2.35646 31.8355 3.30316 31.7591 4.2479C31.6524 5.5774 31.5574 6.90689 31.4468 8.2354C31.3675 9.18015 31.3019 10.1259 31.2285 11.0745C31.1472 12.1182 31.0601 13.1608 30.9817 14.2074C30.9122 15.1306 30.8369 16.0538 30.7654 16.976C30.6606 18.3055 30.5637 19.635 30.4521 20.9635C30.3738 21.9082 30.3082 22.854 30.2348 23.8026C30.1535 24.8462 30.0674 25.8889 29.9881 26.9355C29.9362 27.6208 29.8706 28.2982 29.8363 28.9806C29.7962 29.7775 29.5201 30.1799 28.7682 30.4256C25.7333 31.4164 22.6905 32.3601 19.6517 33.3254C18.9801 33.5379 18.3241 33.8042 17.6193 33.9128C16.9956 34.0091 16.3579 33.9554 15.7591 33.7562C13.2137 32.9417 10.6683 32.1477 8.12287 31.3302C7.16638 31.0228 6.20401 30.736 5.25339 30.4129C4.55438 30.176 4.2695 29.7687 4.21761 29.0423C4.11971 27.6903 4.01397 26.3392 3.9053 24.9882C3.826 24.0004 3.75454 23.0106 3.68013 22.0218C3.60769 21.0555 3.52349 20.0892 3.44517 19.123C3.36978 18.1782 3.30517 17.2325 3.22587 16.2838C3.13874 15.2412 3.0614 14.1966 2.9821 13.151C2.90769 12.1847 2.82839 11.2175 2.75692 10.2512C2.68382 9.26238 2.60551 8.27359 2.52196 7.28479C2.44071 6.30578 2.37218 5.32677 2.29679 4.34776C2.21945 3.34721 2.14407 2.34765 2.05791 1.34906C2.0347 1.1739 2.039 0.996184 2.07064 0.822349C2.19498 0.300537 2.52882 0.0401222 3.05356 0.00683594Z" fill="#FB490B"/>
<path d="M17.0435 6.21771H26.0504C26.4939 6.21771 26.489 6.21771 26.4547 6.64847C26.3793 7.60594 26.2951 8.56243 26.2452 9.52088C26.2296 9.81458 26.1395 9.8792 25.8536 9.8792C21.3159 9.86941 16.7782 9.8792 12.2454 9.86549C11.9194 9.86549 11.8538 9.92619 11.8978 10.2571C12.0427 11.3281 12.1534 12.4041 12.2493 13.481C12.2757 13.7698 12.3472 13.8628 12.6527 13.8618C16.9362 13.8507 21.2196 13.8484 25.5031 13.855C25.9016 13.855 25.8947 13.855 25.8624 14.2652C25.6751 16.6637 25.4897 19.0623 25.3063 21.4609C25.2163 22.6357 25.1213 23.8105 25.0352 24.9931C25.0393 25.0687 25.0159 25.1432 24.9693 25.2028C24.9226 25.2624 24.856 25.3031 24.7816 25.3172C22.2597 26.1095 19.7397 26.9074 17.2217 27.7109C17.0981 27.7539 16.9635 27.7539 16.8399 27.7109C14.3206 26.9087 11.8006 26.1108 9.27997 25.3172C9.20562 25.3031 9.13893 25.2624 9.09229 25.2028C9.04565 25.1432 9.02224 25.0687 9.02641 24.9931C8.89327 23.1996 8.75915 21.4051 8.61131 19.6086C8.5888 19.3433 8.66124 19.2767 8.92362 19.2796C10.0984 19.2933 11.2644 19.2992 12.4343 19.2796C12.7476 19.2738 12.7946 19.3775 12.7878 19.6536C12.7701 20.4045 12.7878 21.1554 12.777 21.9053C12.777 22.1266 12.8211 22.2294 13.059 22.2901C14.3493 22.621 15.6347 22.9754 16.9202 23.3269C17.0673 23.3695 17.2234 23.3695 17.3705 23.3269C18.6559 22.9744 19.9404 22.6181 21.2307 22.2852C21.4598 22.2265 21.496 22.106 21.5088 21.9171C21.6067 20.5621 21.6948 19.2082 21.8025 17.8552C21.825 17.5811 21.7202 17.5615 21.4931 17.5615C17.2755 17.5674 13.058 17.5615 8.84138 17.5752C8.49775 17.5752 8.43216 17.4714 8.40964 17.1562C8.23244 14.7086 8.03468 12.2709 7.84377 9.82927C7.75468 8.69558 7.67146 7.56189 7.57356 6.42917C7.55594 6.22652 7.64797 6.21575 7.79971 6.21673C8.28922 6.22162 8.77089 6.21673 9.25648 6.21673L17.0435 6.21771Z" fill="#FEFEFE"/>
</svg>
