<svg width="34" height="34" viewBox="0 0 34 34" fill="none" xmlns="http://www.w3.org/2000/svg">
<g clip-path="url(#clip0_37_470)">
<path d="M17 33.992C11.4254 33.992 5.85113 33.9938 0.277136 33.9973C0.0664064 33.9973 -0.00354004 33.9778 -0.00354004 33.7317C0.00413357 22.5722 0.00413357 11.4118 -0.00354004 0.250523C-0.00354004 0.0424659 0.0451583 -0.00268555 0.25146 -0.00268555C11.4113 0.00262654 22.571 0.00262654 33.7308 -0.00268555C33.9194 -0.00268555 33.9965 0.0150223 33.9965 0.241671C33.9894 11.413 33.9894 22.5843 33.9965 33.7556C33.9965 34.0009 33.9017 33.9911 33.7238 33.9911C28.1515 33.9899 22.5769 33.9902 17 33.992Z" fill="#FEDE00"/>
<path d="M25.9205 31.3367C24.2108 31.3075 22.5453 30.8205 21.2225 29.4543C20.88 29.0926 20.5827 28.6906 20.3371 28.2572C20.2486 28.1058 20.2769 28.0376 20.4256 27.9544C21.165 27.5347 21.9016 27.1106 22.6312 26.675C22.7915 26.5785 22.8703 26.5864 22.965 26.7476C23.1502 27.063 23.3808 27.3494 23.6494 27.5976C24.6128 28.4892 25.7435 28.6875 26.976 28.3431C27.5869 28.1722 28.0385 27.7844 28.1368 27.1168C28.2359 26.427 27.9216 25.9197 27.3487 25.5593C26.6404 25.1166 25.8665 24.8271 25.1095 24.4968C24.2374 24.1161 23.3794 23.7088 22.6622 23.0651C21.2863 21.8255 20.9241 20.2628 21.3491 18.538C21.7706 16.83 23.0058 15.911 24.6792 15.5479C25.5268 15.374 26.4013 15.3788 27.2469 15.5621C28.5945 15.8348 29.5764 16.6184 30.2892 17.7756C30.3981 17.9527 30.3777 18.0218 30.2077 18.1298C29.523 18.5554 28.8442 18.991 28.1713 19.4367C27.9809 19.5642 27.8977 19.5536 27.7711 19.3481C27.1911 18.422 26.4518 18.0749 25.4885 18.2573C24.9572 18.3565 24.5632 18.638 24.4118 19.1684C24.2604 19.6988 24.3365 20.2229 24.7589 20.6382C25.113 20.9853 25.5558 21.1854 25.9985 21.3855C27.1035 21.884 28.2315 22.3285 29.2621 22.9863C31.5545 24.4499 31.6749 26.9893 31.002 28.6362C30.422 30.0581 29.2479 30.7718 27.8207 31.1339C27.2487 31.28 26.651 31.3331 25.9205 31.3367Z" fill="black"/>
<path d="M18.5193 21.4094C18.5193 23.0793 18.5193 24.7495 18.5193 26.4199C18.529 27.0508 18.4504 27.68 18.2856 28.2891C17.8695 29.7482 16.9345 30.7062 15.4717 31.0976C14.009 31.4889 12.5605 31.4332 11.1757 30.7532C10.2301 30.2883 9.55628 29.5455 9.06044 28.6282C8.9781 28.4768 8.9719 28.3909 9.1419 28.2926C9.88388 27.8564 10.6217 27.4107 11.3554 26.9556C11.5192 26.8538 11.5918 26.8768 11.6804 27.0442C11.8034 27.2663 11.941 27.4802 12.0921 27.6843C12.642 28.4272 13.5221 28.6822 14.3942 28.3687C14.9688 28.1616 15.1911 27.6976 15.2708 27.1477C15.3121 26.8521 15.3313 26.5538 15.3283 26.2552C15.3324 22.8257 15.331 19.3965 15.3239 15.9676C15.3239 15.6745 15.3929 15.5993 15.6851 15.6063C16.536 15.6285 17.3887 15.6241 18.2396 15.6063C18.4795 15.6063 18.53 15.6781 18.5282 15.9047C18.5158 17.7367 18.5193 19.573 18.5193 21.4094Z" fill="black"/>
</g>
<defs>
<clipPath id="clip0_37_470">
<rect width="34" height="34" fill="white"/>
</clipPath>
</defs>
</svg>
