<svg width="50" height="50" viewBox="0 0 50 50" fill="none" xmlns="http://www.w3.org/2000/svg">
<path d="M49.9908 23.0469V23.5352C49.9549 23.5753 49.9351 23.6272 49.9351 23.681C49.9351 23.7348 49.9549 23.7868 49.9908 23.8269V24.2175C49.9509 24.31 49.9303 24.4097 49.9303 24.5105C49.9303 24.6112 49.9509 24.7109 49.9908 24.8034V25.9753C49.9257 26.0339 49.9439 26.1055 49.94 26.1836V26.3529C49.94 26.4245 49.927 26.5026 49.9908 26.5612V27.0482C49.8606 27.7331 49.8958 28.4323 49.7773 29.1198C48.9674 33.8177 47.0233 37.9909 43.8736 41.5638C40.6336 45.2829 36.3588 47.952 31.595 49.2305C30.0859 49.6459 28.5598 49.9453 26.9869 49.9401C26.9389 49.9399 26.8925 49.9576 26.8567 49.9896H26.5624C26.5217 49.9544 26.4697 49.9351 26.4159 49.9351C26.3621 49.9351 26.3101 49.9544 26.2694 49.9896H25.6835C25.3958 49.9115 25.0924 49.9115 24.8046 49.9896H23.828C23.7708 49.9258 23.6978 49.9427 23.6197 49.9388H23.4517C23.3788 49.9388 23.3007 49.9258 23.2434 49.9896H22.8528C21.5299 49.8594 20.2161 49.7006 18.9218 49.3659C14.5963 48.2448 10.815 46.1784 7.58455 43.0691C4.6115 40.2206 2.39078 36.6797 1.12101 32.7631C0.538978 31 0.1119 29.198 0.0598164 27.3269C0.063991 27.2948 0.0616449 27.2623 0.0529181 27.2312C0.0441913 27.2001 0.0292623 27.1711 0.0090332 27.1459V26.7552C0.0767415 26.6927 0.054608 26.6094 0.0598164 26.5339V26.3542C0.0480976 26.2592 0.0923665 26.1537 0.0090332 26.0717V25.681C0.0910605 25.1962 0.0910605 24.701 0.0090332 24.2162V23.8256C0.0702311 23.7722 0.0572122 23.6953 0.0598164 23.6302C0.0624205 23.5651 0.0702311 23.4896 0.0090332 23.4362V22.948C0.127523 22.181 0.122315 21.4024 0.261638 20.6355C1.02491 16.3198 2.90548 12.2794 5.71607 8.91671C7.60474 6.62879 9.89371 4.70337 12.4713 3.23441C15.2556 1.62884 18.3232 0.574899 21.5064 0.130248C22.0155 0.0599356 22.5377 0.101603 23.0481 0.00915527H23.4387C23.5221 0.0924886 23.6275 0.0482157 23.7226 0.0599345H23.9023C23.9778 0.0599345 24.0598 0.0768636 24.1223 0.00915527H25.8801C25.9439 0.0781657 26.0286 0.0547261 26.108 0.0599345H26.5325C26.6106 0.0599345 26.6952 0.0781657 26.7577 0.00915527H26.953C28.0637 0.11853 29.177 0.184937 30.2747 0.428426C33.9442 1.22657 37.3896 2.83284 40.3601 5.13032C43.3306 7.4278 45.7515 10.3587 47.4465 13.7097C48.689 16.1531 49.5083 18.7894 49.8697 21.5065C49.9361 22.017 49.8984 22.5378 49.9908 23.0469Z" fill="#151515"/>
<path d="M0.0090332 24.2188C0.169196 24.6939 0.169196 25.2084 0.0090332 25.6836V24.2188Z" fill="#151515"/>
<path d="M24.8047 49.9909C24.9384 49.9142 25.0899 49.8738 25.2441 49.8738C25.3983 49.8738 25.5499 49.9142 25.6836 49.9909H24.8047Z" fill="#151515"/>
<path d="M49.9908 24.8047C49.9189 24.7241 49.8792 24.6198 49.8792 24.5117C49.8792 24.4037 49.9189 24.2994 49.9908 24.2188V24.8047Z" fill="#151515"/>
<path d="M23.724 0.0898838C23.6211 0.0898838 23.4961 0.166707 23.4375 0.00915527H23.7305C23.7643 0.0312907 23.7747 0.0495202 23.7604 0.0664472C23.7565 0.0728644 23.7512 0.0783089 23.7449 0.0823696C23.7386 0.0864303 23.7314 0.0889998 23.724 0.0898838V0.0898838Z" fill="#151515"/>
<path d="M26.3723 0.0924865H26.0806C26.0442 0.0768615 26.0311 0.0586332 26.0416 0.040404C26.052 0.0221748 26.0624 0.00915527 26.0741 0.00915527H26.3671C26.397 0.0260824 26.4074 0.044312 26.3996 0.0625412C26.3918 0.0807703 26.3814 0.0924865 26.3723 0.0924865Z" fill="#151515"/>
<path d="M49.9909 23.8282C49.8737 23.7305 49.8398 23.6329 49.9909 23.5365V23.8282Z" fill="#151515"/>
<path d="M0.0090332 26.0742C0.139241 26.1471 0.106691 26.2617 0.0923684 26.3737C0.0624205 26.4089 0.0337728 26.4089 0.0090332 26.3737V26.0742Z" fill="#151515"/>
<path d="M26.2695 49.9909C26.3672 49.8685 26.4648 49.8398 26.5625 49.9909H26.2695Z" fill="#151515"/>
<path d="M23.7239 0.0898838C23.7239 0.0638421 23.7239 0.036499 23.7239 0.00915527H23.9192C23.953 0.0312907 23.9622 0.0495175 23.9504 0.0677466C23.9387 0.0859758 23.9257 0.0937899 23.914 0.0937899L23.7239 0.0898838Z" fill="#151515"/>
<path d="M23.9207 0.0937899C23.9207 0.0651441 23.9207 0.0378011 23.9207 0.00915527H24.116C24.0986 0.0440002 24.0695 0.071592 24.0337 0.0870744C23.998 0.102557 23.958 0.104936 23.9207 0.0937899V0.0937899Z" fill="#151515"/>
<path d="M26.0741 0.00915527C26.0741 0.0378011 26.0741 0.0651428 26.0741 0.0924865C26.0361 0.10549 25.9947 0.104203 25.9575 0.0888665C25.9204 0.0735303 25.8901 0.045196 25.8723 0.00915527H26.0741Z" fill="#151515"/>
<path d="M26.3723 0.0924865C26.3704 0.0647441 26.3704 0.0368977 26.3723 0.00915527H26.5624C26.5924 0.0260824 26.6028 0.044312 26.5937 0.0625412C26.5846 0.0807703 26.5755 0.0924865 26.5664 0.0924865H26.3723Z" fill="#151515"/>
<path d="M26.5625 0.0924865C26.5599 0.0647695 26.5599 0.0368723 26.5625 0.00915527H26.7565C26.7344 0.130249 26.6471 0.104205 26.5625 0.0924865Z" fill="#151515"/>
<path d="M0.0090332 23.4375C0.118408 23.4661 0.101482 23.5482 0.0910651 23.6276C0.0663255 23.6745 0.0389811 23.6784 0.0090332 23.6276V23.4375Z" fill="#151515"/>
<path d="M0.0090332 23.6328H0.0910651C0.107992 23.7174 0.104085 23.7943 0.0090332 23.832V23.6328Z" fill="#151515"/>
<path d="M49.9076 26.1718C49.8941 26.134 49.8951 26.0925 49.9106 26.0555C49.926 26.0184 49.9546 25.9884 49.991 25.9713V26.1718C49.9649 26.2122 49.9376 26.2148 49.9076 26.1718Z" fill="#151515"/>
<path d="M49.9075 26.1719H49.9908V26.3672C49.9648 26.4076 49.9374 26.4115 49.9075 26.3672V26.1719Z" fill="#151515"/>
<path d="M0.0090332 26.3672H0.0923685C0.0923685 26.431 0.0923685 26.4974 0.0923685 26.5599C0.0637226 26.599 0.0363782 26.599 0.0103366 26.5599L0.0090332 26.3672Z" fill="#151515"/>
<path d="M49.9074 26.3711H49.9908V26.5625C49.8697 26.5378 49.8957 26.4518 49.9074 26.3711Z" fill="#151515"/>
<path d="M0.0090332 26.5625H0.0910651C0.104086 26.6432 0.134033 26.7318 0.0090332 26.7539V26.5625Z" fill="#151515"/>
<path d="M23.2434 49.9908C23.2655 49.8671 23.3528 49.8971 23.4335 49.9088C23.4687 49.9257 23.4804 49.9427 23.47 49.9609C23.4595 49.9791 23.4491 49.9908 23.4374 49.9908H23.2434Z" fill="#151515"/>
<path d="M23.4375 49.9908C23.4375 49.9639 23.4375 49.9366 23.4375 49.9088H23.6315C23.6667 49.9244 23.6797 49.9414 23.6693 49.9596C23.6589 49.9778 23.6484 49.9895 23.6367 49.9895L23.4375 49.9908Z" fill="#151515"/>
<path d="M23.6328 49.9908C23.6328 49.9635 23.6328 49.9362 23.6328 49.9101C23.7174 49.8932 23.7943 49.8945 23.8333 49.9908H23.6328Z" fill="#151515"/>
<path d="M26.3125 22.7682C28.2813 20.5547 31.2487 19.8763 33.918 20.9583C35.8112 21.7252 36.6771 23.2786 37.099 25.1562C37.3218 26.2068 37.4271 27.279 37.4128 28.3528C37.4128 31.069 37.4128 33.7847 37.4128 36.5C37.4128 37.2409 37.1524 37.4935 36.4193 37.4948C35.2639 37.4948 34.109 37.4948 32.9544 37.4948C32.2826 37.4948 32.0156 37.2252 32.0143 36.5455C32.0143 34.1219 32.0143 31.6988 32.0143 29.276C32.0143 28.4609 31.9922 27.651 31.7357 26.8672C31.418 25.8919 30.806 25.2369 29.7513 25.0963C28.5925 24.9427 27.6237 25.2669 26.9831 26.3034C26.5114 27.0891 26.2692 27.9912 26.2839 28.9075C26.2708 31.4127 26.2839 33.9166 26.2839 36.4205C26.2839 37.2669 26.056 37.4987 25.2266 37.4987C24.138 37.4987 23.0482 37.4987 21.9583 37.4987C21.2956 37.4987 21.013 37.2161 21.0117 36.5442C21.0117 31.5963 21.0117 26.6527 21.0117 21.7135C21.0117 21.039 21.2878 20.7604 21.9583 20.7552C23.0964 20.7456 24.2344 20.7456 25.3724 20.7552C26.0443 20.7552 26.2995 21.0286 26.3112 21.7148C26.3177 22.0299 26.3125 22.3502 26.3125 22.7682Z" fill="#008AFF"/>
<path d="M13.3673 29.1002C13.3673 26.6783 13.3673 24.2556 13.3673 21.832C13.3673 21.0221 13.6381 20.7513 14.4493 20.7487C15.4745 20.7487 16.4988 20.7487 17.5222 20.7487C18.3568 20.7487 18.6446 21.0325 18.6446 21.8528C18.6446 26.6974 18.6446 31.5429 18.6446 36.3893C18.6446 37.2135 18.3582 37.4934 17.5248 37.4948C16.4832 37.4948 15.4415 37.4948 14.3998 37.4948C13.6563 37.4948 13.3582 37.2057 13.3582 36.4661C13.3625 34.0121 13.3655 31.5568 13.3673 29.1002Z" fill="#008AFF"/>
<path d="M12.5911 15.9297C12.5878 15.0245 12.9442 14.1552 13.5819 13.5129C14.2196 12.8705 15.0864 12.5078 15.9915 12.5045C16.8966 12.5013 17.766 12.8577 18.4083 13.4954C19.0506 14.1331 19.4133 14.9998 19.4166 15.9049C19.4182 16.3531 19.3316 16.7972 19.1616 17.2119C18.9916 17.6265 18.7415 18.0037 18.4258 18.3217C18.11 18.6398 17.7347 18.8925 17.3213 19.0655C16.9079 19.2385 16.4644 19.3284 16.0162 19.33C15.568 19.3317 15.1239 19.245 14.7093 19.075C14.2946 18.905 13.9175 18.655 13.5994 18.3392C13.2814 18.0235 13.0286 17.6482 12.8556 17.2347C12.6826 16.8213 12.5927 16.3778 12.5911 15.9297V15.9297Z" fill="#008AFF"/>
</svg>
