<svg width="148" height="166" viewBox="0 0 148 166" fill="none" xmlns="http://www.w3.org/2000/svg">
<path d="M114.411 127.463C114.411 89.2304 114.516 52.6684 114.296 16.0959C114.296 11.3995 115.471 10.2859 120.027 10.4225C131.185 10.7692 131.195 10.5275 131.195 21.5381C131.195 65.1079 131.122 108.667 131.3 152.237C131.3 156.66 130.051 157.311 125.863 157.721C117.466 158.562 112.386 155.62 107.746 148.339C96.7354 131.14 84.6539 114.635 73.0239 97.8036C71.3969 95.4397 69.9274 94.4311 66.6525 95.0404C57.4996 96.7425 48.1683 95.9124 38.9314 95.7338C34.4179 95.6498 33.5047 97.1102 33.5677 101.334C33.8091 118.48 33.5677 135.626 33.7671 152.815C33.8301 156.839 32.7175 157.711 28.8233 157.658C16.5949 157.469 16.5949 157.658 16.5949 145.46C16.5949 102.594 16.7208 59.7286 16.4374 16.8628C16.4374 11.3155 18.0539 10.2438 23.1132 10.4855C37.4094 11.1684 51.7895 9.43485 66.0332 11.389C92.3478 14.9507 103.128 36.163 100.388 59.6341C99.265 69.2579 95.5807 77.852 88.2857 84.5446C86.7952 85.9104 86.1864 86.9611 87.5719 88.8627C96.2315 101.239 104.828 113.71 114.411 127.463Z" fill="#0089FE"/>
<path d="M43.8647 25.6249C52.3563 25.5303 59.5359 25.0785 66.4846 27.3689C82.7751 32.7586 89.6398 58.4361 78.0937 70.7811C77.2644 71.6636 76.5822 72.8823 75.3436 71.1278C65.0781 56.2403 54.7495 41.3634 43.8647 25.6249Z" fill="#121212"/>
<path d="M34.6383 42.687L61.0789 80.8985C52.01 80.8985 44.0851 80.8355 36.1498 80.8985C33.9351 80.8985 33.5992 79.8479 33.5992 78.0198C33.5992 66.3368 33.5992 54.6537 33.5992 42.9812L34.6383 42.687Z" fill="#121212"/>
</svg>
