<svg width="34" height="34" viewBox="0 0 34 34" fill="none" xmlns="http://www.w3.org/2000/svg">
<path d="M33.9929 5.71537V28.351C33.9401 29.1011 33.7234 29.8304 33.3581 30.4876C32.3104 32.3257 30.7381 33.3784 28.6415 33.6458C28.0475 33.7082 27.45 33.7322 26.8529 33.7176C20.0406 33.7176 13.2279 33.7176 6.41487 33.7176C4.96633 33.7176 3.61341 33.3917 2.4181 32.5196C1.30336 31.7077 0.570234 30.6345 0.153202 29.3321C0.0522649 29.0151 0.0974235 28.6751 0.00622559 28.3581V5.64896C0.0602553 4.91038 0.271576 4.19189 0.626017 3.54167C1.6832 1.6575 3.28227 0.60917 5.42232 0.346201C5.97246 0.29209 6.52542 0.271983 7.07805 0.285993C13.9353 0.285993 20.7929 0.285993 27.6507 0.285993C29.0674 0.285993 30.384 0.623337 31.5545 1.46448C32.6852 2.27641 33.4263 3.35662 33.846 4.67146C33.954 5.01146 33.9115 5.37271 33.9929 5.71537Z" fill="#001834"/>
<path d="M7.6482 16.3855C7.6482 14.0401 7.65351 11.6928 7.64111 9.3509C7.64111 9.02773 7.73851 8.94361 8.0546 8.94007C9.40309 8.92591 10.7525 8.86835 12.101 8.85153C13.314 8.84002 14.5128 8.96664 15.6231 9.50497C17.4639 10.3966 18.3228 11.9106 18.3511 13.9241C18.3936 16.8805 16.4714 18.5814 13.9524 18.9887C13.022 19.1262 12.0798 19.1662 11.1412 19.1082C10.8215 19.0932 10.7047 19.1534 10.7117 19.5111C10.7365 20.8047 10.7224 22.0992 10.7215 23.3927C10.7215 23.8443 10.7215 23.8443 10.2566 23.8443C9.51554 23.8443 8.77445 23.8301 8.03335 23.8514C7.71903 23.8602 7.64112 23.7478 7.64289 23.4494C7.65263 21.0977 7.6482 18.7416 7.6482 16.3855Z" fill="#00A8FE"/>
<path d="M19.8678 22.0292C19.8678 21.675 19.8678 21.3208 19.8678 20.9667C19.8678 20.6125 19.9077 20.5913 20.222 20.7568C21.282 21.3171 22.4676 21.5972 23.6663 21.5705C23.9429 21.5665 24.2177 21.5239 24.4826 21.4439C24.7553 21.3625 24.9598 21.2057 25.0236 20.9127C25.0873 20.6196 24.9351 20.4 24.7155 20.2265C24.3737 19.9538 23.9664 19.8041 23.5644 19.6474C22.829 19.3747 22.1216 19.032 21.4518 18.6239C19.1391 17.1629 19.5615 14.0489 21.7086 12.9386C22.7091 12.4215 23.7743 12.3188 24.866 12.3746C25.6266 12.4118 26.3836 12.4835 27.1185 12.7243C27.4319 12.827 27.5329 12.9961 27.5267 13.3025C27.5152 13.9329 27.5267 14.5633 27.5267 15.1937C27.5267 15.6126 27.4328 15.6657 27.0503 15.493C26.0193 15.0258 24.8849 14.8331 23.7574 14.9334C23.6142 14.946 23.473 14.9757 23.3369 15.022C22.818 15.1991 22.6914 15.7356 23.0774 16.1261C23.3652 16.4156 23.7424 16.5599 24.1063 16.7158C24.9032 17.0593 25.7275 17.3559 26.481 17.8075C27.5709 18.4601 28.1473 19.3835 28.0969 20.6754C28.0473 21.9468 27.4514 22.8889 26.357 23.499C25.2892 24.0966 24.1098 24.1967 22.9154 24.1356C21.9972 24.0887 21.0932 23.9532 20.2308 23.6043C19.9652 23.4972 19.8466 23.3484 19.8643 23.058C19.8837 22.7163 19.8678 22.3727 19.8678 22.0292Z" fill="#00A8FE"/>
<path d="M10.7471 14.0525C10.7471 13.3441 10.7471 12.6358 10.7471 11.9275C10.7471 11.7867 10.7471 11.6618 10.9428 11.6618C11.7583 11.6618 12.5746 11.5777 13.3866 11.7504C14.9112 12.0709 15.6886 13.477 15.1353 14.9379C14.9263 15.4904 14.5031 15.8304 13.9895 16.0739C13.3361 16.382 12.6375 16.4732 11.9247 16.4599C11.5422 16.4528 11.0446 16.6246 10.8091 16.3714C10.594 16.1394 10.7578 15.6524 10.7507 15.2788C10.74 14.8697 10.7471 14.4606 10.7471 14.0525Z" fill="#001834"/>
</svg>
