<svg width="34" height="34" viewBox="0 0 34 34" fill="none" xmlns="http://www.w3.org/2000/svg">
<g clip-path="url(#clip0_37_489)">
<path d="M11.3378 34C12.8407 34 14.282 33.403 15.3447 32.3403C16.4075 31.2776 17.0045 29.8362 17.0045 28.3334V22.6667H11.3378C9.83491 22.6667 8.39358 23.2637 7.33087 24.3264C6.26816 25.3891 5.67114 26.8305 5.67114 28.3334C5.67114 29.8362 6.26816 31.2776 7.33087 32.3403C8.39358 33.403 9.83491 34 11.3378 34Z" fill="#0ACF83"/>
<path d="M5.67114 17C5.67114 15.4971 6.26816 14.0557 7.33087 12.993C8.39358 11.9303 9.83491 11.3333 11.3378 11.3333H17.0045V22.6666H11.3378C9.83491 22.6666 8.39358 22.0696 7.33087 21.0069C6.26816 19.9442 5.67114 18.5029 5.67114 17Z" fill="#A259FF"/>
<path d="M5.67114 5.66667C5.67114 4.16454 6.26756 2.72387 7.32931 1.66129C8.39105 0.598714 9.83126 0.00117354 11.3334 0L17 0V11.3333H11.3378C9.83492 11.3333 8.39358 10.7363 7.33087 9.67361C6.26816 8.6109 5.67114 7.16956 5.67114 5.66667Z" fill="#F24E1E"/>
<path d="M17.0044 0H22.6711C24.174 0 25.6153 0.597022 26.678 1.65973C27.7407 2.72243 28.3377 4.16377 28.3377 5.66667C28.3377 7.16956 27.7407 8.6109 26.678 9.67361C25.6153 10.7363 24.174 11.3333 22.6711 11.3333H17.0044V0Z" fill="#FF7262"/>
<path d="M28.3377 17C28.3377 18.5029 27.7407 19.9442 26.678 21.0069C25.6153 22.0696 24.174 22.6666 22.6711 22.6666C21.1682 22.6666 19.7268 22.0696 18.6641 21.0069C17.6014 19.9442 17.0044 18.5029 17.0044 17C17.0044 15.4971 17.6014 14.0557 18.6641 12.993C19.7268 11.9303 21.1682 11.3333 22.6711 11.3333C24.174 11.3333 25.6153 11.9303 26.678 12.993C27.7407 14.0557 28.3377 15.4971 28.3377 17Z" fill="#1ABCFE"/>
</g>
<defs>
<clipPath id="clip0_37_489">
<rect width="34" height="34" fill="white"/>
</clipPath>
</defs>
</svg>
