<svg width="34" height="34" viewBox="0 0 34 34" fill="none" xmlns="http://www.w3.org/2000/svg">
<path d="M17.016 1.59996C20.4455 1.59996 23.875 1.59996 27.3045 1.59996C30.0662 1.60438 32.3001 3.44517 32.8375 6.15188C32.9048 6.51062 32.9369 6.87508 32.9331 7.24006C32.9331 13.7443 32.9331 20.2489 32.9331 26.7538C32.9331 29.9554 30.4832 32.3939 27.2753 32.3965C20.4281 32.4001 13.5809 32.4001 6.73365 32.3965C3.51162 32.3965 1.07495 29.9501 1.07407 26.7219C1.07053 20.2395 1.07053 13.757 1.07407 7.27459C1.07407 4.02954 3.51251 1.60173 6.76464 1.59907C10.1806 1.59553 13.5977 1.59582 17.016 1.59996Z" fill="#330000"/>
<path d="M14.7041 10.0937C15.1574 10.0937 15.6116 10.1097 16.0641 10.0875C16.3138 10.076 16.4067 10.1761 16.4829 10.3992C17.7567 14.1286 19.0355 17.8568 20.3194 21.5838C20.6098 22.4294 20.8931 23.2776 21.1933 24.1196C21.2818 24.3631 21.2208 24.4375 20.9702 24.434C20.2397 24.426 19.5092 24.4207 18.7797 24.434C18.522 24.4393 18.406 24.3383 18.3246 24.1063C17.9589 23.0642 17.572 22.03 17.2089 20.987C17.1354 20.7754 17.0434 20.7028 16.814 20.7055C15.4204 20.7178 14.0265 20.7178 12.6322 20.7055C12.4215 20.7055 12.3268 20.7639 12.2586 20.9711C11.9133 22.0079 11.5414 23.0359 11.1961 24.07C11.1075 24.3268 10.996 24.4455 10.7047 24.4331C10.0973 24.4092 9.48811 24.4269 8.87983 24.426C8.47165 24.426 8.45217 24.3985 8.58321 24.0098C9.65103 20.84 10.7191 17.6699 11.7875 14.4996C12.1045 13.5551 12.4227 12.6139 12.742 11.676C12.8969 11.2495 12.9842 10.8013 13.0006 10.3478C13.0006 10.1442 13.0785 10.0822 13.2777 10.0822C13.7523 10.1043 14.2277 10.0937 14.7041 10.0937Z" fill="#FE9900"/>
<path d="M25.2344 19.125C25.2344 20.7604 25.2255 22.3957 25.2415 24.0311C25.2415 24.3596 25.1352 24.4463 24.8235 24.4366C24.1825 24.4154 23.5414 24.4224 22.9004 24.4366C22.6525 24.4366 22.5746 24.3481 22.5754 24.1046C22.5808 20.7778 22.5808 17.4515 22.5754 14.1259C22.5754 13.8709 22.6737 13.8045 22.9101 13.8089C23.5724 13.8204 24.2383 13.8231 24.8988 13.8089C25.1644 13.8027 25.2406 13.8975 25.2397 14.1551C25.2273 15.8126 25.2344 17.4701 25.2344 19.125Z" fill="#FE9900"/>
<path d="M25.5 11.1757C25.5 12.1311 24.8598 12.7553 23.8849 12.7518C22.9411 12.7518 22.3124 12.1125 22.3142 11.1651C22.3142 10.2044 22.9756 9.56072 23.9531 9.56515C24.8802 9.56957 25.5 10.2133 25.5 11.1757Z" fill="#FE9900"/>
<path d="M16.5662 18.3122H12.889L14.6953 12.2914C15.3346 14.35 15.9473 16.3218 16.5662 18.3122Z" fill="#330000"/>
</svg>
