<svg width="50" height="50" viewBox="0 0 50 50" fill="none" xmlns="http://www.w3.org/2000/svg">
<path d="M49.9908 23.0469V23.5352C49.9549 23.5753 49.9351 23.6272 49.9351 23.681C49.9351 23.7348 49.9549 23.7868 49.9908 23.8269V24.2175C49.9509 24.31 49.9303 24.4097 49.9303 24.5105C49.9303 24.6112 49.9509 24.7109 49.9908 24.8034V25.9753C49.9257 26.0339 49.9439 26.1055 49.94 26.1836V26.3529C49.94 26.4245 49.927 26.5026 49.9908 26.5612V27.0482C49.8606 27.7331 49.8957 28.4323 49.7773 29.1198C48.9674 33.8177 47.0233 37.9909 43.8736 41.5638C40.6336 45.2829 36.3588 47.952 31.595 49.2305C30.0859 49.6459 28.5598 49.9453 26.9869 49.9401C26.9389 49.9399 26.8925 49.9576 26.8567 49.9896H26.5624C26.5217 49.9544 26.4697 49.9351 26.4159 49.9351C26.3621 49.9351 26.3101 49.9544 26.2694 49.9896H25.6835C25.3957 49.9115 25.0924 49.9115 24.8046 49.9896H23.828C23.7707 49.9258 23.6978 49.9427 23.6197 49.9388H23.4517C23.3788 49.9388 23.3007 49.9258 23.2434 49.9896H22.8528C21.5299 49.8594 20.2161 49.7006 18.9218 49.3659C14.5963 48.2448 10.815 46.1784 7.58455 43.0691C4.6115 40.2206 2.39078 36.6797 1.12101 32.7631C0.538978 31 0.1119 29.198 0.0598164 27.3269C0.063991 27.2948 0.0616449 27.2623 0.0529181 27.2312C0.0441913 27.2001 0.0292623 27.1711 0.0090332 27.1459V26.7552C0.0767415 26.6927 0.054608 26.6107 0.0598164 26.5339V25.9987C0.0598164 25.9219 0.0767415 25.8399 0.0090332 25.7787V25.1927C0.0923575 24.8726 0.0923575 24.5364 0.0090332 24.2162V23.7279C0.0702311 23.6745 0.0572122 23.5977 0.0598164 23.5326C0.0624205 23.4675 0.0702311 23.392 0.0090332 23.3386V22.948C0.127523 22.181 0.122315 21.4024 0.261638 20.6355C1.02491 16.3198 2.90548 12.2794 5.71607 8.91671C7.60474 6.62879 9.89371 4.70337 12.4713 3.23441C15.2556 1.62884 18.3232 0.574899 21.5064 0.130248C22.0168 0.0599356 22.5377 0.101603 23.0481 0.00915527H23.4387C23.5221 0.0924886 23.6275 0.0482157 23.7226 0.0599345H23.9023C23.9778 0.0599345 24.0598 0.0768636 24.1223 0.00915527H25.8801C25.9439 0.0781657 26.0286 0.0547261 26.108 0.0599345H26.5325C26.6106 0.0599345 26.6952 0.0781657 26.7577 0.00915527H26.953C28.0637 0.11853 29.177 0.184937 30.2747 0.428426C33.9442 1.22657 37.3896 2.83284 40.3601 5.13032C43.3306 7.4278 45.7515 10.3587 47.4465 13.7097C48.689 16.1531 49.5083 18.7894 49.8697 21.5065C49.9361 22.017 49.8984 22.5378 49.9908 23.0469Z" fill="#151515"/>
<path d="M0.0090332 24.2188C0.0844963 24.3705 0.123768 24.5376 0.123768 24.707C0.123768 24.8765 0.0844963 25.0436 0.0090332 25.1953V24.2188Z" fill="#151515"/>
<path d="M24.8047 49.9909C24.9384 49.9142 25.0899 49.8738 25.2441 49.8738C25.3983 49.8738 25.5499 49.9142 25.6836 49.9909H24.8047Z" fill="#151515"/>
<path d="M49.9908 24.8047C49.9189 24.7241 49.8792 24.6198 49.8792 24.5117C49.8792 24.4037 49.9189 24.2994 49.9908 24.2188V24.8047Z" fill="#151515"/>
<path d="M23.724 0.0898838C23.6211 0.0898838 23.4961 0.166707 23.4375 0.00915527H23.7305C23.7643 0.0312907 23.7747 0.0495202 23.7604 0.0664472C23.7565 0.0728644 23.7512 0.0783089 23.7449 0.0823696C23.7386 0.0864303 23.7314 0.0889998 23.724 0.0898838V0.0898838Z" fill="#151515"/>
<path d="M49.9908 23.8282C49.8724 23.7305 49.8398 23.6329 49.9908 23.5365V23.8282Z" fill="#151515"/>
<path d="M26.2695 49.9909C26.3672 49.8685 26.4648 49.8398 26.5625 49.9909H26.2695Z" fill="#151515"/>
<path d="M26.371 0.095054H26.0806C26.0442 0.079429 26.0311 0.0611966 26.0416 0.0429675C26.052 0.0247383 26.0624 0.0117188 26.0741 0.0117188H26.3671C26.397 0.0299479 26.4074 0.0481761 26.3996 0.0677074C26.3918 0.0872386 26.3814 0.095054 26.371 0.095054Z" fill="#151515"/>
<path d="M23.7239 0.0898838C23.7239 0.0638421 23.7239 0.036499 23.7239 0.00915527H23.9192C23.953 0.0312907 23.9622 0.0495175 23.9504 0.0677466C23.9387 0.0859758 23.9257 0.0937899 23.914 0.0937899L23.7239 0.0898838Z" fill="#151515"/>
<path d="M23.9207 0.0937899C23.9207 0.0651441 23.9207 0.0378011 23.9207 0.00915527H24.116C24.0986 0.0440002 24.0695 0.071592 24.0337 0.0870744C23.998 0.102557 23.958 0.104936 23.9207 0.0937899V0.0937899Z" fill="#151515"/>
<path d="M0.0090332 23.3412C0.124919 23.3672 0.101481 23.4519 0.0897618 23.5313C0.0663243 23.5795 0.0389811 23.5808 0.0090332 23.5313V23.3412Z" fill="#151515"/>
<path d="M0.0090332 25.7812C0.0441463 25.7995 0.07195 25.8292 0.0878226 25.8655C0.103695 25.9017 0.106677 25.9423 0.0962706 25.9805C0.0663226 26.0195 0.036377 26.0195 0.0090332 25.9805V25.7812Z" fill="#151515"/>
<path d="M0.0090332 25.9766C0.0389811 25.9766 0.0676247 25.9766 0.0962706 25.9766V26.1719C0.0663226 26.2096 0.038977 26.211 0.0129353 26.1719L0.0090332 25.9766Z" fill="#151515"/>
<path d="M49.9076 26.1718C49.8941 26.134 49.8951 26.0925 49.9106 26.0555C49.926 26.0184 49.9546 25.9884 49.991 25.9713V26.1718C49.9649 26.2135 49.9376 26.2148 49.9076 26.1718Z" fill="#151515"/>
<path d="M0.0090332 26.1719H0.0923685C0.0923685 26.237 0.0923685 26.3021 0.0923685 26.3685C0.0624205 26.4063 0.0350761 26.4037 0.0103366 26.3685L0.0090332 26.1719Z" fill="#151515"/>
<path d="M49.9075 26.1719H49.9908V26.3672C49.9648 26.4089 49.9374 26.4102 49.9075 26.3672V26.1719Z" fill="#151515"/>
<path d="M0.0090332 26.3672C0.036377 26.3672 0.0637213 26.3672 0.0910651 26.3672V26.5625C0.0624193 26.6003 0.0350749 26.6016 0.0090332 26.5625V26.3672Z" fill="#151515"/>
<path d="M49.9077 26.3711H49.991V26.5625C49.8699 26.5378 49.896 26.4518 49.9077 26.3711Z" fill="#151515"/>
<path d="M0.0090332 26.5625H0.0910651C0.104086 26.6432 0.134033 26.7318 0.0090332 26.7539V26.5625Z" fill="#151515"/>
<path d="M26.7566 0.00915527C26.7344 0.131551 26.6459 0.102903 26.5665 0.0924865C26.5313 0.0755594 26.5196 0.0573298 26.53 0.0391006C26.5404 0.0208715 26.5509 0.00915527 26.5626 0.00915527H26.7566Z" fill="#151515"/>
<path d="M26.5625 0.00907644C26.5599 0.0367921 26.5599 0.0646921 26.5625 0.0924077H26.3672C26.3646 0.0638206 26.3646 0.0350568 26.3672 0.00646973L26.5625 0.00907644Z" fill="#151515"/>
<path d="M23.2434 49.9908C23.2655 49.8671 23.3528 49.8971 23.4335 49.9088C23.4687 49.9257 23.4804 49.9427 23.47 49.9609C23.4595 49.9791 23.4491 49.9908 23.4374 49.9908H23.2434Z" fill="#151515"/>
<path d="M23.4375 49.9908C23.4375 49.9639 23.4375 49.9366 23.4375 49.9088H23.6315C23.6667 49.9244 23.6797 49.9414 23.6693 49.9596C23.6589 49.9778 23.6484 49.9895 23.6367 49.9895L23.4375 49.9908Z" fill="#151515"/>
<path d="M23.6328 49.9908C23.6328 49.9635 23.6328 49.9361 23.6328 49.9101C23.7174 49.8932 23.7943 49.8945 23.8333 49.9908H23.6328Z" fill="#151515"/>
<path d="M26.0741 0.00915527C26.0741 0.0378011 26.0741 0.0651428 26.0741 0.0924865C26.0361 0.10549 25.9947 0.104203 25.9575 0.0888665C25.9204 0.0735302 25.8901 0.045196 25.8723 0.00915527H26.0741Z" fill="#151515"/>
<path d="M0.0090332 23.5365C0.0359094 23.5346 0.0628855 23.5346 0.0897617 23.5365C0.107991 23.6211 0.110596 23.6992 0.0090332 23.7357V23.5365Z" fill="#151515"/>
<path d="M24.9506 37.5C23.3074 37.5 21.6654 37.5 20.0222 37.5C15.7996 37.4844 12.517 34.2031 12.5066 29.9818C12.4988 26.6623 12.4988 23.3438 12.5066 20.026C12.5183 15.8021 15.7996 12.5221 20.0222 12.5117C23.3417 12.5039 26.6602 12.5039 29.9779 12.5117C34.2006 12.5221 37.4805 15.8008 37.4936 20.0287C37.5022 23.3464 37.5022 26.6645 37.4936 29.9831C37.4805 34.2123 34.2032 37.4844 29.9766 37.5C28.3009 37.5 26.6264 37.5 24.9506 37.5Z" fill="#008AFF"/>
<path d="M34.9752 25.0182C34.9752 26.6276 34.9752 28.2369 34.9752 29.8476C34.9648 32.875 32.884 34.9648 29.8632 34.9726C26.628 34.9813 23.3923 34.9813 20.1562 34.9726C17.1288 34.9661 15.0351 32.8802 15.0286 29.862C15.0208 26.6267 15.0208 23.3906 15.0286 20.1536C15.0351 17.1054 17.1288 15.0312 20.1887 15.0299C23.4075 15.0299 26.6271 15.0299 29.8476 15.0299C32.871 15.0299 34.9622 17.1132 34.9752 20.138C34.9804 21.7656 34.9752 23.3919 34.9752 25.0182Z" fill="#151515"/>
<path d="M18.5429 24.9687C18.5489 23.6929 18.9327 22.4474 19.646 21.3895C20.3593 20.3317 21.3701 19.5089 22.5507 19.0251C23.7313 18.5413 25.0287 18.4182 26.2793 18.6713C27.5298 18.9244 28.6773 19.5423 29.5768 20.4472C30.4763 21.352 31.0876 22.503 31.3334 23.755C31.5792 25.007 31.4485 26.3037 30.9578 27.4815C30.4671 28.6592 29.6385 29.6652 28.5765 30.3723C27.5145 31.0794 26.2667 31.4559 24.9909 31.4544C24.1403 31.4565 23.2978 31.2899 22.5121 30.9642C21.7264 30.6386 21.0131 30.1603 20.4134 29.5572C19.8138 28.954 19.3397 28.2379 19.0186 27.4503C18.6976 26.6627 18.5359 25.8192 18.5429 24.9687V24.9687Z" fill="#008AFF"/>
<path d="M31.5105 20.1263C31.2988 20.1291 31.0887 20.0898 30.8923 20.0108C30.6959 19.9318 30.5172 19.8146 30.3664 19.666C30.2156 19.5174 30.0958 19.3403 30.0139 19.1451C29.9321 18.9499 29.8897 18.7404 29.8894 18.5287C29.903 18.1119 30.0786 17.717 30.3788 17.4276C30.6791 17.1383 31.0803 16.9775 31.4973 16.9794C31.9142 16.9813 32.314 17.1456 32.6117 17.4376C32.9093 17.7296 33.0814 18.1262 33.0912 18.543C33.0885 18.9616 32.9212 19.3624 32.6254 19.6587C32.3296 19.9549 31.9291 20.1229 31.5105 20.1263V20.1263Z" fill="#008AFF"/>
<path d="M24.9999 28.9401C24.2202 28.9394 23.4582 28.7073 22.8105 28.2732C22.1627 27.8392 21.6583 27.2227 21.3612 26.5018C21.064 25.781 20.9873 24.9881 21.141 24.2237C21.2946 23.4593 21.6716 22.7576 22.2242 22.2075C22.7768 21.6575 23.4802 21.2837 24.2454 21.1336C25.0105 20.9835 25.803 21.0638 26.5225 21.3644C27.2419 21.6649 27.8561 22.1721 28.2871 22.8219C28.7182 23.4716 28.9467 24.2346 28.9439 25.0144C28.9437 25.5314 28.8415 26.0433 28.643 26.5207C28.4445 26.9981 28.1537 27.4316 27.7872 27.7964C27.4208 28.1611 26.9859 28.4499 26.5076 28.6462C26.0293 28.8425 25.5169 28.9424 24.9999 28.9401V28.9401Z" fill="#151515"/>
</svg>
